<?xml version="1.0" encoding="utf-8"?>
<!-- Generator: Adobe Illustrator 24.3.0, SVG Export Plug-In . SVG Version: 6.00 Build 0)  -->
<svg version="1.1" id="atto" xmlns="http://www.w3.org/2000/svg" xmlns:xlink="http://www.w3.org/1999/xlink" x="0px" y="0px"
	 viewBox="0 0 595.28 624" style="enable-background:new 0 0 595.28 624;" xml:space="preserve">
<g id="レイヤー_2_1_">
	<path d="M439.17,8.36c-155.62,155.62-108.71,324.97-100.7,426.81c3.22,40.97-6.65,88.67-37.05,118.6
		c-20.72,20.39-46.28,33.37-74.67,39.2c-18.5,3.8-36.51,5.7-54.03,5.7c-17.51,0-33.52-2.34-47.96-7.05
		c-14.46-4.7-26.84-11.24-37.14-19.63c-10.29-8.39-18.21-18.46-23.76-30.21c-5.57-11.75-8.35-24.67-8.35-38.76
		c0-14.54,3.06-28.41,9.19-41.61c6.13-13.2,14.69-24.9,25.68-35.07s24.21-18.29,39.66-24.34c15.44-6.04,32.5-9.06,51.16-9.06
		c16.15,0,31.31,1.58,45.51,4.72c14.21,3.14,26.52,8.02,36.96,14.64c10.43,6.63,18.71,15.05,24.85,25.26
		c6.12,10.22,9.19,22.39,9.19,36.53c0,10.33-1.39,19.7-4.17,28.12c-2.79,8.43-6.54,15.67-11.28,21.72
		c-4.74,6.06-10.23,10.72-16.48,13.97c-6.27,3.27-12.87,4.89-19.82,4.89c-5.29,0-8.9-1.16-10.84-3.52
		c-1.95-2.35-2.91-5.54-2.91-9.58c0-5.15,2.85-15.68,8.54-31.58c5.7-15.9,12.72-35.27,21.07-58.11h-40.57l-4.6,11.96
		c-3.34-5.53-8.14-9.46-14.39-11.79c-6.26-2.33-13.69-3.49-22.3-3.49c-13.34,0-25.44,2.4-36.27,7.21s-20.15,11.06-27.93,18.77
		s-13.83,16.37-18.14,25.97c-4.3,9.62-6.45,19.34-6.45,29.16c0,15.42,5.06,26.82,15.2,34.19c10.14,7.38,23.95,11.06,41.46,11.06
		c20.55,0,36.25-5.97,47.08-17.92c3.34,7.53,8.51,12.4,15.48,14.61c6.97,2.21,15.19,3.31,24.67,3.31c13.1,0,24.95-2.29,35.54-6.88
		s19.65-10.92,27.18-19c7.53-8.06,13.31-17.53,17.37-28.4c4.04-10.87,6.06-22.69,6.06-35.48c0-16.12-3.84-30.3-11.51-42.52
		c-7.67-12.21-17.91-22.41-30.73-30.59c-12.83-8.18-27.74-14.4-44.75-18.66c-17.01-4.25-34.71-6.39-53.11-6.39
		c-23.42,0-45.32,3.14-65.66,9.42c-20.35,6.28-38.06,15.06-53.11,26.37c-15.06,11.32-26.97,24.74-35.75,40.31
		s-13.18,32.77-13.18,51.57c0,19.26,4.34,36,13.04,50.23c8.71,14.22,20.1,26.05,34.2,35.45c14.1,9.42,30.11,16.3,48.06,20.67
		c17.93,4.35,36.08,6.54,54.43,6.54c23.09,0,44.92-1.93,65.5-5.78c20.57-3.85,40.32-11.06,59.22-21.63c0,0,79.23-45.53,70.08-151.94
		c-7.96-92.49-33.61-212.4,31.96-321.6c16.55,16.18,57.44,41.05,87,71.11c44.63,45.39,49.93,90.78,49.93,90.78
		c13.46,75.7-61.47,164.78-61.47,164.78c24.02-13.25,65.43-31.47,103.53-100.21c38.09-68.74-14.09-135.82-71.23-202.08
		C440.5,72.84,457.89,14.04,457.89,14.04C439.17,8.36,439.17,8.36,439.17,8.36z M199,493.29c-1.67,7.63-4.31,15.1-7.93,22.39
		s-8.2,13.63-13.75,19.02c-5.57,5.39-12.24,8.07-20.02,8.07c-6.41,0-11.06-2.19-13.98-6.57s-4.38-9.48-4.38-15.31
		c0-4.48,0.96-10.32,2.91-17.51s4.86-14.2,8.76-21.05c3.9-6.85,8.69-12.8,14.39-17.84c5.69-5.05,12.16-7.58,19.4-7.58
		c5.02,0,9.11,1.52,12.32,4.54c3.19,3.04,4.8,7.47,4.8,13.3C201.52,479.48,200.68,485.66,199,493.29z"/>
</g>
</svg>
